<?xml version="1.0" encoding="utf-8"?>
<!-- Generator: Adobe Illustrator 17.0.0, SVG Export Plug-In . SVG Version: 6.00 Build 0)  -->
<!DOCTYPE svg PUBLIC "-//W3C//DTD SVG 1.1//EN" "http://www.w3.org/Graphics/SVG/1.1/DTD/svg11.dtd">
<svg version="1.1" id="Layer_1" xmlns="http://www.w3.org/2000/svg" xmlns:xlink="http://www.w3.org/1999/xlink" x="0px" y="0px"
	 width="841.89px" height="248px" viewBox="0 0 841.89 248" enable-background="new 0 0 841.89 248" xml:space="preserve">
<g>
	<g>
		<path fill="#D8D8D8" d="M238.671,119.636c-4.314-4.066-9.244-5.422-15.036-5.422c-7.148,0-11.093,2.218-11.093,6.038
			c0,3.944,3.574,6.163,11.339,6.655c11.462,0.74,26.005,3.328,26.005,19.474c0,10.722-8.75,19.965-26.128,19.965
			c-9.613,0-19.227-1.602-28.1-10.845l7.395-10.723c4.313,4.807,14.173,8.381,20.951,8.504c5.67,0.123,10.969-2.835,10.969-7.271
			c0-4.19-3.45-5.916-12.077-6.409c-11.462-0.863-25.143-5.053-25.143-18.857c0-14.05,14.543-18.979,25.635-18.979
			c9.49,0,16.639,1.849,23.663,8.011L238.671,119.636z"/>
		<path fill="#D8D8D8" d="M280.7,86.361v17.254h16.762v12.94h-16.885v26.252c0,5.792,3.204,8.627,7.888,8.627
			c2.342,0,5.053-0.739,7.271-1.849l4.19,12.817c-4.313,1.726-7.888,2.465-12.448,2.588c-13.188,0.493-21.814-7.024-21.814-22.184
			v-26.252h-11.338v-12.94h11.338V87.962L280.7,86.361z"/>
		<path fill="#D8D8D8" d="M356.866,103.492h14.419v60.76h-14.173l-0.739-8.874c-3.451,7.148-12.941,10.6-19.72,10.723
			c-17.993,0.123-31.304-10.969-31.304-32.291c0-20.952,13.927-31.921,31.674-31.798c8.134,0,15.898,3.821,19.35,9.86
			L356.866,103.492z M320.384,133.81c0,11.585,8.012,18.487,17.994,18.487c23.663,0,23.663-36.85,0-36.85
			C328.396,115.447,320.384,122.225,320.384,133.81z"/>
		<path fill="#D8D8D8" d="M397.908,103.492l1.109,7.024c4.684-7.518,10.969-8.627,17.131-8.627c6.286,0,12.325,2.465,15.653,5.793
			l-6.779,13.063c-3.081-2.588-5.916-3.943-10.845-3.943c-7.888,0-15.159,4.19-15.159,15.405v32.044h-15.036v-60.76L397.908,103.492
			L397.908,103.492z"/>
	</g>
	<g>
		<path fill="#FFFFFF" d="M450.486,164.08v-55.091h-12.449v-5.3h12.449v-5.422c0-12.078,4.805-20.829,18.24-20.829
			c4.559,0,8.627,1.603,12.078,4.19l-2.959,4.437c-3.328-1.972-5.67-3.081-9.367-3.081c-7.641,0-12.078,4.684-12.078,15.283v5.422
			h20.09v5.3H456.4v55.091L450.486,164.08L450.486,164.08z"/>
		<path fill="#FFFFFF" d="M497.443,83.354c0,6.409-9.736,6.409-9.736,0S497.443,76.945,497.443,83.354z M489.434,102.95v61.13h6.039
			v-61.13H489.434z"/>
		<path fill="#FFFFFF" d="M526.652,84.833v18.364h20.705v5.053h-20.705v37.097c0,8.258,1.727,14.05,11.217,14.05
			c2.957,0,6.285-0.985,9.365-2.465l2.096,4.93c-3.82,1.849-7.641,3.081-11.461,3.081c-12.941,0-17.133-7.641-17.133-19.596V108.25
			h-12.939v-5.053h12.939V85.449L526.652,84.833z"/>
		<path fill="#FFFFFF" d="M567.203,103.197v10.846c4.684-8.381,13.188-11.832,21.691-11.955c16.268,0,27.482,9.982,27.482,26.867
			v35.125h-6.039v-35.002c0-13.803-8.504-21.198-21.691-21.074c-12.57,0.123-21.32,9.612-21.32,22.184v33.893h-6.039v-60.883h5.916
			V103.197z"/>
		<path fill="#FFFFFF" d="M628.703,133.638c0-18.24,13.805-31.428,30.936-31.428s32.414,10.476,30.072,34.263h-54.844
			c1.232,14.296,12.201,22.554,24.771,22.554c8.012,0,17.377-3.205,21.938-9.244l4.314,3.451
			c-5.916,7.765-16.516,11.708-26.252,11.708C642.508,164.942,628.703,152.988,628.703,133.638z M684.287,131.173
			c-0.123-15.036-9.982-23.417-24.648-23.417c-12.57,0-23.416,8.504-24.771,23.417H684.287z"/>
		<path fill="#FFFFFF" d="M747.145,114.289c-6.162-5.423-12.201-6.409-18.979-6.409c-9.49-0.123-18.611,3.451-18.365,11.216
			c0.248,8.134,10.846,9.736,18.488,11.092c10.846,1.849,25.758,3.697,25.141,17.872c-0.369,13.434-14.295,17.008-25.018,17.008
			s-21.322-4.067-26.621-12.201l4.438-3.944c5.053,7.271,14.172,10.353,22.307,10.353c7.395,0,18.609-1.972,18.98-11.585
			c0.246-8.75-9.861-10.476-19.844-12.079c-11.832-1.972-23.539-4.19-23.662-16.392c-0.123-11.955,11.83-17.131,24.156-17.008
			c8.873,0,16.637,2.465,22.676,8.134L747.145,114.289z"/>
		<path fill="#FFFFFF" d="M808.645,114.289c-6.162-5.423-12.201-6.409-18.979-6.409c-9.49-0.123-18.611,3.451-18.365,11.216
			c0.248,8.134,10.846,9.736,18.488,11.092c10.846,1.849,25.758,3.697,25.141,17.872c-0.369,13.434-14.295,17.008-25.018,17.008
			s-21.322-4.067-26.621-12.201l4.438-3.944c5.053,7.271,14.172,10.353,22.307,10.353c7.395,0,18.609-1.972,18.98-11.585
			c0.246-8.75-9.861-10.476-19.844-12.079c-11.832-1.972-23.539-4.19-23.662-16.392c-0.123-11.955,11.83-17.131,24.156-17.008
			c8.873,0,16.637,2.465,22.676,8.134L808.645,114.289z"/>
	</g>
	<g>
		<path fill="#FFFFFF" d="M294.065,177.922v12.919c0,6.669-4.092,10.083-9.76,10.083c-5.413,0-10.019-3.286-10.019-10.083v-12.919
			h4.22v12.919c0,4.058,2.319,6.218,5.83,6.218s5.509-2.351,5.509-6.218v-12.919L294.065,177.922L294.065,177.922z"/>
		<path fill="#FFFFFF" d="M313.035,177.858h4.253v22.583h-2.642v0.031l-11.854-15.237v15.205h-4.253v-22.551h3.447l11.05,13.981
			V177.858z"/>
		<path fill="#FFFFFF" d="M325.434,177.889v18.621h11.598v3.93H321.18v-22.551L325.434,177.889L325.434,177.889z"/>
		<path fill="#FFFFFF" d="M356.839,200.44h-16.882c0-7.506,0-15.045,0-22.551h16.882v4.123h-12.661v5.187h12.21v3.961h-12.21v5.09
			h12.661V200.44z"/>
		<path fill="#FFFFFF" d="M401.202,183.302c-0.773-1.289-2.899-2.513-5.348-2.513c-3.157,0-4.671,1.321-4.671,2.997
			c0,1.965,2.321,2.513,5.026,2.835c4.703,0.58,9.086,1.804,9.086,7.184c0,5.025-4.448,7.184-9.473,7.184
			c-4.606,0-8.15-1.418-9.826-5.541l3.545-1.837c0.999,2.48,3.608,3.575,6.347,3.575c2.673,0,5.187-0.933,5.187-3.382
			c0-2.127-2.224-2.997-5.219-3.319c-4.606-0.547-8.859-1.771-8.859-6.83c0-4.639,4.575-6.539,8.732-6.572
			c3.511,0,7.15,0.998,8.859,4.478L401.202,183.302z"/>
		<path fill="#FFFFFF" d="M423.941,200.44v-9.117h-11.083v9.117h-4.252v-22.551h4.252v9.504h11.083v-9.504h4.22v22.551H423.941z"/>
		<path fill="#FFFFFF" d="M448.16,187.167l5.993-9.31h5.12v0.194l-8.987,13.046v9.31h-4.254v-9.31l-8.665-13.046v-0.194h5.057
			L448.16,187.167z"/>
		<path fill="#FFFFFF" d="M483.303,189.262c-0.067,5.83-3.642,11.662-11.568,11.662c-7.924,0-11.596-5.702-11.596-11.629
			s3.8-11.887,11.596-11.887C479.502,177.406,483.368,183.366,483.303,189.262z M464.329,189.358
			c0.097,3.705,2.093,7.667,7.408,7.667c5.317,0,7.314-3.995,7.378-7.699c0.067-3.803-2.06-8.054-7.378-8.054
			C466.422,181.271,464.232,185.557,464.329,189.358z"/>
		<path fill="#FFFFFF" d="M506.202,177.89v12.919c0,6.669-4.091,10.083-9.759,10.083c-5.414,0-10.019-3.286-10.019-10.083V177.89
			h4.22v12.919c0,4.058,2.318,6.218,5.829,6.218s5.509-2.351,5.509-6.218V177.89L506.202,177.89L506.202,177.89z"/>
		<path fill="#FFFFFF" d="M530.36,200.408h-5.06l-6.572-7.538h-4.091v7.538h-4.254v-22.583c3.578,0,7.153,0.031,10.728,0.031
			c5.318,0.031,8.12,3.576,8.12,7.475c0,3.092-1.418,6.218-5.702,7.086l6.83,7.7v0.29H530.36z M514.638,181.821v7.216h6.475
			c2.705,0,3.866-1.804,3.866-3.608c0-1.803-1.191-3.607-3.866-3.607h-6.475V181.821z"/>
		<path fill="#FCC13E" d="M552.518,183.302c-0.776-1.289-2.899-2.513-5.348-2.513c-3.157,0-4.671,1.321-4.671,2.997
			c0,1.965,2.318,2.513,5.026,2.835c4.703,0.58,9.084,1.804,9.084,7.184c0,5.025-4.445,7.184-9.471,7.184
			c-4.608,0-8.15-1.418-9.825-5.541l3.545-1.837c0.997,2.48,3.605,3.575,6.345,3.575c2.675,0,5.187-0.933,5.187-3.382
			c0-2.127-2.224-2.997-5.217-3.319c-4.609-0.547-8.859-1.771-8.859-6.83c0-4.639,4.572-6.539,8.729-6.572
			c3.511,0,7.153,0.998,8.859,4.478L552.518,183.302z"/>
		<path fill="#FCC13E" d="M565.72,181.723h-7.153v-3.866c6.508,0,12.017,0,18.557,0v3.866h-7.153v18.684h-4.252L565.72,181.723
			L565.72,181.723z"/>
		<path fill="#FCC13E" d="M595.707,196.155h-11.789l-1.933,4.253h-4.609l10.116-22.551h4.639l10.116,22.551h-4.639L595.707,196.155z
			 M589.811,182.593l-4.187,9.6h8.377L589.811,182.593z"/>
		<path fill="#FCC13E" d="M624.149,200.408h-5.06l-6.572-7.538h-4.091v7.538h-4.254v-22.583c3.578,0,7.153,0.031,10.728,0.031
			c5.317,0.031,8.12,3.576,8.12,7.475c0,3.092-1.418,6.218-5.702,7.086l6.83,7.7v0.29H624.149z M608.428,181.821v7.216h6.475
			c2.705,0,3.866-1.804,3.866-3.608c0-1.803-1.19-3.607-3.866-3.607h-6.475V181.821z"/>
		<path fill="#FFFFFF" d="M643.021,193.771h-6.377v6.636h-4.254v-22.551c3.545,0,7.086-0.031,10.631-0.031
			C654.039,177.826,654.071,193.771,643.021,193.771z M636.642,189.874h6.377c5.445,0,5.412-7.99,0-7.99h-6.377V189.874z"/>
		<path fill="#FFFFFF" d="M676.328,189.262c-0.067,5.83-3.642,11.662-11.568,11.662c-7.924,0-11.596-5.702-11.596-11.629
			s3.8-11.887,11.596-11.887C672.526,177.406,676.392,183.366,676.328,189.262z M657.353,189.358
			c0.097,3.705,2.093,7.667,7.408,7.667c5.317,0,7.314-3.995,7.378-7.699c0.067-3.803-2.06-8.054-7.378-8.054
			C659.446,181.271,657.256,185.557,657.353,189.358z"/>
		<path fill="#FFFFFF" d="M683.956,181.723h-7.15v-3.866c6.508,0,12.017,0,18.555,0v3.866h-7.15v18.684h-4.254L683.956,181.723
			L683.956,181.723z"/>
		<path fill="#FFFFFF" d="M714.752,200.408H697.87c0-7.506,0-15.045,0-22.551h16.882v4.123H702.09v5.187h12.21v3.961h-12.21v5.09
			h12.662V200.408z"/>
		<path fill="#FFFFFF" d="M733.527,177.826h4.254v22.583h-2.642v0.031l-11.856-15.237v15.205h-4.252v-22.551h3.446l11.05,13.981
			V177.826z"/>
		<path fill="#FFFFFF" d="M747.503,181.723h-7.15v-3.866c6.508,0,12.017,0,18.555,0v3.866h-7.15v18.684h-4.254L747.503,181.723
			L747.503,181.723z"/>
		<path fill="#FFFFFF" d="M761.512,200.408v-22.551h4.22v22.551H761.512z"/>
		<path fill="#FFFFFF" d="M785.738,196.155h-11.792l-1.933,4.253h-4.606l10.113-22.551h4.641l10.113,22.551h-4.639L785.738,196.155z
			 M779.842,182.593l-4.187,9.6h8.375L779.842,182.593z"/>
		<path fill="#FFFFFF" d="M798.779,177.857v18.621h11.598v3.93h-15.852v-22.551L798.779,177.857L798.779,177.857z"/>
	</g>
	<g>
		<polyline fill="#FCC13E" points="237.368,212.79 147.065,180.19 80.462,238.403 75.246,242.316 93.804,152.507 13.804,107.325 
			19.018,103.413 105.816,93.793 105.816,93.793 123.375,7.155 128.589,3.243 166.432,86.967 226.809,80.343 157.867,99.448 
			135.288,55.542 123.97,111.554 118.754,115.464 74.501,116.739 118.729,137.161 105.02,203.31 150.449,168.521 		"/>
		<path fill="#FBB51F" d="M139.066,37.89l26.187,52.099l-2.168,5.548l-5.218,3.911l-22.578-43.906l2.04-10.087L139.066,37.89
			L139.066,37.89z M123.97,111.554l-5.216,3.91l-44.253,1.275l-8.991,0.284l43.615,22.634l-10.105,8.938l-5.216,3.911l-80-45.182
			l5.214-3.912L123.97,111.554L123.97,111.554z"/>
	</g>
</g>
<path fill="#FFFFFF" d="M377.67,196.446h-11.792l-1.933,4.253h-4.606l10.113-22.551h4.641l10.113,22.551h-4.639L377.67,196.446z
	 M371.774,182.883l-4.187,9.6h8.375L371.774,182.883z"/>
</svg>
